<svg xmlns="http://www.w3.org/2000/svg" width="400" height="400" viewBox="0 0 400 400">
    <defs>
        <!-- Gradient that covers the entire canvas - using actual colors from input.png -->
        <linearGradient id="canvasGradient" x1="0%" y1="100%" x2="100%" y2="0%" gradientUnits="objectBoundingBox">
            <stop offset="0%" style="stop-color:#8a3fe8;stop-opacity:1" />
            <stop offset="50%" style="stop-color:#3146df;stop-opacity:1" />
            <stop offset="100%" style="stop-color:#03b2dc;stop-opacity:1" />
        </linearGradient>
        
        <!-- Mask containing all the spiral shapes -->
        <mask id="spiralMask">
            <!-- White shapes in mask define where gradient shows through -->
            <path d="M112.5,48.4 S121.9,46.3 131.3,44.6 S140.7,43.6 149.9,43.0 S159.1,43.1 168.1,43.6 S176.9,44.7 185.5,46.2 S193.9,48.2 202.0,50.7 S209.8,53.5 217.4,56.8 S224.6,60.5 231.5,64.5 S238.0,68.9 244.1,73.5 S249.9,78.4 255.2,83.6 S260.2,89.0 264.7,94.6 S268.8,100.3 272.5,106.2 S275.8,112.1 278.6,118.2 S281.0,124.3 283.0,130.4 S284.6,136.5 285.7,142.5 S286.5,148.5 286.8,154.4 S286.8,160.2 286.5,165.9 S285.7,171.4 284.7,176.7 S283.3,181.8 281.6,186.7 S279.7,191.4 277.5,195.8 Q274.2,192.2 273.4,184.4" 
                  stroke="white" 
                  stroke-width="25" 
                  fill="none" 
                  stroke-linecap="round" />
            <path d="M287.5,48.4 S294.1,55.5 300.2,62.8 S305.8,70.4 310.9,78.2 S315.4,86.1 319.5,94.2 S323.0,102.3 326.0,110.5 S328.4,118.8 330.3,127.1 S331.8,135.3 332.7,143.5 S333.1,151.5 333.1,159.5 S332.6,167.3 331.6,175.0 S330.2,182.4 328.4,189.6 S326.2,196.6 323.7,203.3 S320.8,209.7 317.5,215.9 S314.0,221.7 310.2,227.2 S306.1,232.3 301.8,237.1 S297.3,241.5 292.6,245.5 S287.8,249.1 282.9,252.4 S277.9,255.3 272.8,257.8 S267.7,259.9 262.5,261.7 S257.4,263.1 252.3,264.1 S247.3,264.7 242.3,265.0 Q243.8,260.3 250.2,255.7" 
                  stroke="white" 
                  stroke-width="23" 
                  fill="none" 
                  stroke-linecap="round" />
            <path d="M375.0,200.0 S372.2,209.3 368.9,218.2 S365.1,226.8 361.0,235.1 S356.4,243.0 351.4,250.5 S346.1,257.7 340.4,264.3 S334.5,270.6 328.3,276.4 S321.9,281.8 315.3,286.6 S308.5,291.1 301.6,295.0 S294.6,298.5 287.5,301.5 S280.3,304.0 273.2,306.0 S266.1,307.6 259.0,308.8 S251.9,309.5 245.0,309.7 S238.2,309.6 231.6,309.0 S225.1,308.0 218.8,306.7 S212.7,305.0 206.9,303.0 S201.4,300.6 196.1,298.0 S191.0,295.1 186.3,291.9 S181.9,288.6 177.8,285.0 S174.1,281.2 170.7,277.3 S167.6,273.3 164.9,269.2 Q169.7,268.1 176.8,271.3" 
                  stroke="white" 
                  stroke-width="21" 
                  fill="none" 
                  stroke-linecap="round" />
            <path d="M287.5,351.6 S278.1,353.7 268.7,355.4 S259.3,356.4 250.1,357.0 S240.9,356.9 231.9,356.4 S223.1,355.3 214.5,353.8 S206.1,351.8 198.0,349.3 S190.2,346.5 182.6,343.2 S175.4,339.5 168.5,335.5 S162.0,331.1 155.9,326.5 S150.1,321.6 144.8,316.4 S139.8,311.0 135.3,305.4 S131.2,299.7 127.5,293.8 S124.2,287.9 121.4,281.8 S119.0,275.7 117.0,269.6 S115.4,263.5 114.3,257.5 S113.5,251.5 113.2,245.6 S113.2,239.8 113.5,234.1 S114.3,228.6 115.3,223.3 S116.7,218.2 118.4,213.3 S120.3,208.6 122.5,204.2 Q125.8,207.8 126.6,215.6" 
                  stroke="white" 
                  stroke-width="25" 
                  fill="none" 
                  stroke-linecap="round" />
            <path d="M112.5,351.6 S105.9,344.5 99.8,337.2 S94.2,329.6 89.1,321.8 S84.6,313.9 80.5,305.8 S77.0,297.7 74.0,289.5 S71.6,281.2 69.7,272.9 S68.2,264.7 67.3,256.5 S66.9,248.5 66.9,240.5 S67.4,232.7 68.4,225.0 S69.8,217.6 71.6,210.4 S73.8,203.4 76.3,196.7 S79.2,190.3 82.5,184.1 S86.0,178.3 89.8,172.8 S93.9,167.7 98.2,162.9 S102.7,158.5 107.4,154.5 S112.2,150.9 117.1,147.6 S122.1,144.7 127.2,142.2 S132.3,140.1 137.5,138.3 S142.6,136.9 147.7,135.9 S152.7,135.3 157.7,135.0 Q156.2,139.7 149.8,144.3" 
                  stroke="white" 
                  stroke-width="23" 
                  fill="none" 
                  stroke-linecap="round" />
            <path d="M25.0,200.0 S27.8,190.7 31.1,181.8 S34.9,173.2 39.0,164.9 S43.6,157.0 48.6,149.5 S53.9,142.3 59.6,135.7 S65.5,129.4 71.7,123.6 S78.1,118.2 84.7,113.4 S91.5,108.9 98.4,105.0 S105.4,101.5 112.5,98.5 S119.7,96.0 126.8,94.0 S133.9,92.4 141.0,91.2 S148.1,90.5 155.0,90.3 S161.8,90.4 168.4,91.0 S174.9,92.0 181.2,93.3 S187.3,95.0 193.1,97.0 S198.6,99.4 203.9,102.0 S209.0,104.9 213.7,108.1 S218.1,111.4 222.2,115.0 S225.9,118.8 229.3,122.7 S232.4,126.7 235.1,130.8 Q230.3,131.9 223.2,128.7" 
                  stroke="white" 
                  stroke-width="21" 
                  fill="none" 
                  stroke-linecap="round" />
            <circle cx="200" cy="200" r="75" 
                    fill="none" stroke="white" stroke-width="25" />
            <circle cx="75.3" cy="63.0" r="16" fill="white" />
            <circle cx="256.3" cy="23.5" r="16" fill="white" />
            <circle cx="381.0" cy="160.5" r="16" fill="white" />
            <circle cx="324.7" cy="337.0" r="16" fill="white" />
            <circle cx="143.7" cy="376.5" r="16" fill="white" />
            <circle cx="19.0" cy="239.5" r="16" fill="white" />
        </mask>
    </defs>
    
    <!-- Background rectangle with gradient, masked by spiral shapes -->
    <rect width="100%" height="100%" fill="url(#canvasGradient)" mask="url(#spiralMask)" />
</svg>